<svg xmlns="http://www.w3.org/2000/svg" viewBox="0 0 292.01 68.24">
   <defs>
      <style>.cls-1{fill:#1e3563;}.cls-2{fill:#1f55e1;}.cls-3{fill:#fff;}</style>
   </defs>
   <g id="Layer_2" data-name="Layer 2">
      <g id="Layer_1-2" data-name="Layer 1">
        <g fill="#FFF">
         <path d="M68.21,64.72V42.31H83.93v2.54h-13v7.24H81.05v2.54H70.93v7.54H84.44v2.55Z"/>
         <path d="M106.29,42.31V56.37q0,4.31-2.28,6.5a9,9,0,0,1-6.52,2.19A9,9,0,0,1,91,62.87q-2.3-2.19-2.29-6.5V42.31h2.71V55.69c0,2.33.5,4.05,1.48,5.16a5.84,5.84,0,0,0,4.6,1.66,5.84,5.84,0,0,0,4.6-1.66q1.48-1.66,1.48-5.16V42.31Z"/>
         <path d="M121.25,42.31a8.23,8.23,0,0,1,5.5,1.76,6,6,0,0,1,2.07,4.79,5.69,5.69,0,0,1-2.09,4.7,8.54,8.54,0,0,1-5.52,1.69l-.23.16h-5.51v9.31h-2.71V42.31Zm0,10.56a5.47,5.47,0,0,0,3.59-1,3.75,3.75,0,0,0,1.17-3,3.72,3.72,0,0,0-1.17-3,5.42,5.42,0,0,0-3.59-1h-5.74v8Zm1.57.54,7.4,11.31H127l-6.45-9.81Z"/>
         <path d="M235,3.83a14.74,14.74,0,0,1,6.89,1.52,13.28,13.28,0,0,1,4.92,4.39l-3.22,3.09a10.59,10.59,0,0,0-3.85-3.72,10.25,10.25,0,0,0-5-1.16,9.22,9.22,0,0,0-3.54.58,4.55,4.55,0,0,0-2.06,1.57,3.81,3.81,0,0,0-.62,2.14,3.44,3.44,0,0,0,.94,2.42,7.15,7.15,0,0,0,3.62,1.61l6,1.35c2.87.62,4.89,1.58,6.09,2.86a6.89,6.89,0,0,1,1.79,4.88,7.75,7.75,0,0,1-1.48,4.74,9.27,9.27,0,0,1-4.12,3.09,15.88,15.88,0,0,1-6.13,1.07,18.3,18.3,0,0,1-5.64-.8,15.23,15.23,0,0,1-4.38-2.19,12.91,12.91,0,0,1-3.09-3.18l3.31-3.31a12.17,12.17,0,0,0,2.37,2.82,10.87,10.87,0,0,0,3.31,1.88,13.08,13.08,0,0,0,4.26.67,11.12,11.12,0,0,0,3.53-.5,4.56,4.56,0,0,0,2.28-1.43A3.53,3.53,0,0,0,242,25.9a3.33,3.33,0,0,0-.89-2.29,6.1,6.1,0,0,0-3.23-1.52l-6.49-1.48A14.19,14.19,0,0,1,226.93,19a7.16,7.16,0,0,1-2.59-2.6,7.16,7.16,0,0,1-.85-3.49,7.92,7.92,0,0,1,1.34-4.52,9.5,9.5,0,0,1,4-3.27A14.16,14.16,0,0,1,235,3.83Zm27.37,30.43a12.23,12.23,0,0,1-5.91-1.38,9.93,9.93,0,0,1-4-4,13.35,13.35,0,0,1-1.39-6.26,13.07,13.07,0,0,1,1.39-6.22,9.87,9.87,0,0,1,3.94-4A11.46,11.46,0,0,1,262.09,11a10.81,10.81,0,0,1,5.55,1.34A9,9,0,0,1,271.13,16a11.3,11.3,0,0,1,1.21,5.29c0,.53,0,1,0,1.52a12.5,12.5,0,0,1-.14,1.25h-18V20.39h15.89l-2.37.72a6.57,6.57,0,0,0-1.52-4.66A5.41,5.41,0,0,0,262,14.8a6.14,6.14,0,0,0-3.35.89,5.66,5.66,0,0,0-2.2,2.69,10.84,10.84,0,0,0-.76,4.29,10,10,0,0,0,.81,4.25,5.9,5.9,0,0,0,2.28,2.65,6.68,6.68,0,0,0,3.49.89,6.87,6.87,0,0,0,3.63-.85,6.12,6.12,0,0,0,2.19-2.37l3.8,1.79a9,9,0,0,1-2.19,2.82,9.49,9.49,0,0,1-3.22,1.79A12.9,12.9,0,0,1,262.36,34.26ZM284,4.86V27.1a3.12,3.12,0,0,0,.85,2.42,3.54,3.54,0,0,0,2.38.76,5.63,5.63,0,0,0,2.1-.36,6.31,6.31,0,0,0,1.65-1.07L292,32.34a7.84,7.84,0,0,1-2.55,1.43,10.41,10.41,0,0,1-3.31.49,9.61,9.61,0,0,1-3.54-.62,5.13,5.13,0,0,1-2.51-2,7.23,7.23,0,0,1-.94-3.71V6.2Zm7.7,6.58V15.2H274.87V11.44Z"/>
         <path d="M48.61,47a25.81,25.81,0,0,1-18,7.29A26.11,26.11,0,0,1,20.41,4.12L18.68,0a30.57,30.57,0,1,0,33,50.22Z"/>
         <rect x="28.33" y="54.25" width="4.48" height="13.92"/>
         <rect x="18.88" y="63.76" width="23.37" height="4.48"/>
         <rect x="161.43" y="3.52" width="4.79" height="4.79"/>
        </g>
         <polygon class="cls-2" points="89.56 8.39 73 8.39 73 16.99 85.98 16.99 85.98 21.11 73 21.11 73 33.82 68.21 33.82 68.21 4.28 89.56 4.28 89.56 8.39"/>
         <path class="cls-2" d="M101.8,11a11.69,11.69,0,0,1,5.78,1.39,9.52,9.52,0,0,1,3.89,4,12.62,12.62,0,0,1,1.43,6.22,12.89,12.89,0,0,1-1.43,6.26,9.65,9.65,0,0,1-3.89,4,12.77,12.77,0,0,1-11.55,0,10,10,0,0,1-3.94-4,13,13,0,0,1-1.43-6.26,12.73,12.73,0,0,1,1.43-6.22,9.87,9.87,0,0,1,3.94-4A11.68,11.68,0,0,1,101.8,11Zm0,3.76a6.09,6.09,0,0,0-3.44.94,5.81,5.81,0,0,0-2.15,2.64,10.75,10.75,0,0,0-.76,4.3,10.86,10.86,0,0,0,.76,4.29,6.06,6.06,0,0,0,2.15,2.69,6.32,6.32,0,0,0,3.44.9,6.14,6.14,0,0,0,3.41-.9,6,6,0,0,0,2.14-2.69,10.86,10.86,0,0,0,.77-4.29,10.74,10.74,0,0,0-.77-4.3,5.79,5.79,0,0,0-2.14-2.64A5.92,5.92,0,0,0,101.8,14.75Z"/>
         <path class="cls-2" d="M118.48,33.82V11.44h4.07l.45,4a6.85,6.85,0,0,1,2.64-3.31A7.88,7.88,0,0,1,130,11a6.78,6.78,0,0,1,1.34.14,3.55,3.55,0,0,1,1.12.31l-.67,4.21a5.57,5.57,0,0,0-1.12-.27,7.41,7.41,0,0,0-1.61-.14,5.53,5.53,0,0,0-2.73.76,5.82,5.82,0,0,0-2.24,2.2,7.4,7.4,0,0,0-.85,3.76V33.82Z"/>
         <path class="cls-2" d="M145.84,34.26a12.21,12.21,0,0,1-5.9-1.38,10,10,0,0,1-4-4,13.35,13.35,0,0,1-1.38-6.26A13.07,13.07,0,0,1,136,16.41a9.87,9.87,0,0,1,3.94-4A11.5,11.5,0,0,1,145.58,11a10.86,10.86,0,0,1,5.55,1.34A9.06,9.06,0,0,1,154.62,16a11.42,11.42,0,0,1,1.21,5.29c0,.53,0,1-.05,1.52s-.07.89-.13,1.25h-18V20.39h15.89l-2.37.72a6.57,6.57,0,0,0-1.52-4.66,5.39,5.39,0,0,0-4.16-1.65,6.15,6.15,0,0,0-3.36.89,5.58,5.58,0,0,0-2.19,2.69,10.66,10.66,0,0,0-.76,4.29,10,10,0,0,0,.8,4.25,5.9,5.9,0,0,0,2.28,2.65,6.68,6.68,0,0,0,3.49.89,6.82,6.82,0,0,0,3.63-.85,6,6,0,0,0,2.19-2.37L155.38,29a9.21,9.21,0,0,1-2.2,2.82A9.4,9.4,0,0,1,150,33.64,12.86,12.86,0,0,1,145.84,34.26Z"/>
         <rect class="cls-2" x="161.43" y="11.44" width="4.79" height="22.38"/>
         
         <path class="cls-2" d="M193,11l.76,3.76h-.26a.84.84,0,0,0-.27,0,4.94,4.94,0,0,0-3.27.94,3.15,3.15,0,0,0-1.12,2.64l-2.33-1.08a6.61,6.61,0,0,1,.76-3.18,5.56,5.56,0,0,1,2.15-2.23A6.46,6.46,0,0,1,192.6,11H193Z"/>
         <path class="cls-2" d="M185.88,30.33a8.14,8.14,0,0,1,5.28,1.52A4.92,4.92,0,0,1,193,36a5.78,5.78,0,0,1-1.47,4,9.26,9.26,0,0,1-4,2.59,17.07,17.07,0,0,1-5.78.9q-5.5,0-8.14-1.7A5,5,0,0,1,171,37.49a4.48,4.48,0,0,1,1.25-3.14,6.45,6.45,0,0,1,4.34-1.52l-.27.72a6.68,6.68,0,0,1-3-1.43,4,4,0,0,1-1.12-3,4.24,4.24,0,0,1,1.48-3.27,6.87,6.87,0,0,1,4.16-1.57l2.51,1.21h-.54a5.12,5.12,0,0,0-2.91.94,2.25,2.25,0,0,0-.85,1.7,1.85,1.85,0,0,0,.81,1.66,4.38,4.38,0,0,0,2.37.54Zm-4.12,9.53a13.67,13.67,0,0,0,4-.49,5.25,5.25,0,0,0,2.37-1.21,2.13,2.13,0,0,0,.81-1.61,2,2,0,0,0-.85-1.66,5,5,0,0,0-3-.63H178a3.4,3.4,0,0,0-2.1.63,2.17,2.17,0,0,0-.85,1.79A2.59,2.59,0,0,0,176.8,39,11.74,11.74,0,0,0,181.76,39.86Z"/>
         <path class="cls-2" d="M181.58,11a12.67,12.67,0,0,1,5.11.94A7.54,7.54,0,0,1,190,14.57a6.69,6.69,0,0,1,1.21,4,6.68,6.68,0,0,1-1.21,4,7.54,7.54,0,0,1-3.35,2.64,12.67,12.67,0,0,1-5.11.94q-4.65,0-7.16-2.06a6.89,6.89,0,0,1-2.46-5.5,6.69,6.69,0,0,1,1.21-4,8,8,0,0,1,3.36-2.64A12.67,12.67,0,0,1,181.58,11Zm0,3.36a5.19,5.19,0,0,0-3.44,1.16,3.75,3.75,0,0,0-1.34,3,3.85,3.85,0,0,0,1.34,3.08,5.14,5.14,0,0,0,3.44,1.17A5,5,0,0,0,185,21.64a3.8,3.8,0,0,0,1.39-3.08,3.7,3.7,0,0,0-1.39-3A5.09,5.09,0,0,0,181.58,14.35Z"/>
         <path class="cls-2" d="M197,33.82V11.44h4.25l.32,5.82-.63-.63a8.6,8.6,0,0,1,1.79-3.18,7.25,7.25,0,0,1,2.82-1.88A10.69,10.69,0,0,1,209,11a9.32,9.32,0,0,1,4.25.94,7,7,0,0,1,3,2.73,8.88,8.88,0,0,1,1.12,4.66v14.5h-4.79v-13c0-2.2-.46-3.73-1.39-4.56a4.67,4.67,0,0,0-3.4-1.3,6.17,6.17,0,0,0-2.87.72,5.51,5.51,0,0,0-2.32,2.19,8,8,0,0,0-.9,4.07V33.82Z"/>
         
         <path class="cls-2" d="M30.57,48A19.85,19.85,0,1,1,50.41,28.17,19.86,19.86,0,0,1,30.57,48Z"/>
         <polygon class="cls-3" points="30.55 16.1 31.19 18.07 33.27 18.07 31.59 19.3 32.23 21.27 30.55 20.05 28.87 21.27 29.51 19.3 27.83 18.07 29.91 18.07 30.55 16.1"/>
         <polygon class="cls-3" points="22.02 19.63 23.87 20.58 25.34 19.11 25.01 21.16 26.86 22.1 24.81 22.43 24.49 24.48 23.54 22.63 21.49 22.95 22.96 21.48 22.02 19.63"/>
         <polygon class="cls-3" points="18.48 28.17 20.46 27.52 20.46 25.45 21.68 27.13 23.66 26.48 22.43 28.17 23.66 29.85 21.68 29.2 20.46 30.88 20.46 28.81 18.48 28.17"/>
         <polygon class="cls-3" points="22.02 36.7 22.96 34.85 21.49 33.38 23.54 33.7 24.49 31.85 24.81 33.91 26.86 34.23 25.01 35.17 25.34 37.22 23.87 35.76 22.02 36.7"/>
         <polygon class="cls-3" points="30.55 40.23 29.91 38.26 27.83 38.26 29.51 37.04 28.87 35.06 30.55 36.28 32.23 35.06 31.59 37.04 33.27 38.26 31.19 38.26 30.55 40.23"/>
         <polygon class="cls-3" points="39.08 36.7 37.23 35.76 35.76 37.22 36.09 35.17 34.24 34.23 36.29 33.91 36.62 31.85 37.56 33.7 39.61 33.38 38.14 34.85 39.08 36.7"/>
         <polygon class="cls-3" points="42.62 28.17 40.64 28.81 40.64 30.88 39.42 29.2 37.45 29.85 38.67 28.17 37.45 26.48 39.42 27.13 40.64 25.45 40.64 27.52 42.62 28.17"/>
         <polygon class="cls-3" points="39.08 19.63 38.14 21.48 39.61 22.95 37.56 22.63 36.62 24.48 36.29 22.43 34.24 22.1 36.09 21.16 35.76 19.11 37.23 20.58 39.08 19.63"/>
      </g>
   </g>
</svg>