<svg width="100" height="23" viewBox="0 0 100 23" fill="none" xmlns="http://www.w3.org/2000/svg">
<path d="M32.2173 7.50598H26.4597V10.7337H30.996V11.8678H26.4597V16.3169H25.2384V6.37192H32.2173V7.50598Z" fill="#1F55E1"/>
<path d="M36.6664 8.64008C37.3643 8.64008 37.9749 8.81455 38.5856 9.07626C39.109 9.4252 39.5452 9.86139 39.8941 10.3848C40.2431 10.9955 40.3303 11.6933 40.3303 12.4784C40.3303 13.2636 40.1558 13.9615 39.8941 14.5721C39.5452 15.1828 39.109 15.619 38.5856 15.8807C38.0622 16.2296 37.3643 16.3169 36.6664 16.3169C35.9685 16.3169 35.3578 16.1424 34.7472 15.8807C34.2238 15.5317 33.7876 15.0956 33.4386 14.5721C33.0897 13.9615 33.0024 13.2636 33.0024 12.4784C33.0024 11.6933 33.1769 10.9955 33.4386 10.3848C33.7876 9.77415 34.2238 9.33797 34.7472 9.07626C35.3578 8.81455 35.9685 8.64008 36.6664 8.64008ZM36.6664 9.6869C36.143 9.6869 35.7068 9.77413 35.3578 10.0358C35.0089 10.2975 34.7472 10.5593 34.4855 10.9955C34.311 11.4317 34.2238 11.9551 34.2238 12.5657C34.2238 13.1764 34.311 13.6998 34.4855 14.136C34.6599 14.5721 34.9217 14.9211 35.3578 15.0955C35.7068 15.3572 36.143 15.4445 36.6664 15.4445C37.1898 15.4445 37.626 15.3572 37.9749 15.0955C38.3239 14.8338 38.5856 14.5721 38.8473 14.136C39.0218 13.6998 39.109 13.1764 39.109 12.5657C39.109 11.9551 39.0218 11.4317 38.8473 10.9955C38.6728 10.5593 38.4111 10.2103 37.9749 10.0358C37.626 9.77413 37.1898 9.6869 36.6664 9.6869Z" fill="#1F55E1"/>
<path d="M42.3367 16.3169V8.72731H43.2963L43.4708 9.94864C43.6452 9.51246 43.9942 9.16351 44.4304 8.9018C44.8666 8.64009 45.3027 8.55286 45.9134 8.55286C46.0006 8.55286 46.1751 8.55286 46.3496 8.55286C46.524 8.55286 46.6113 8.6401 46.7858 8.6401L46.6113 9.77416C46.5241 9.77416 46.3496 9.68692 46.2623 9.68692C46.0879 9.68692 45.9134 9.68692 45.7389 9.68692C45.39 9.68692 45.1283 9.77417 44.7793 9.94864C44.4304 10.1231 44.1687 10.3848 43.9942 10.7337C43.8197 11.0827 43.6452 11.6061 43.6452 12.1296V16.2297H42.3367V16.3169Z" fill="#1F55E1"/>
<path d="M51.2348 16.4914C50.5369 16.4914 49.9263 16.3169 49.3156 16.0552C48.7922 15.7062 48.356 15.2701 48.0071 14.7466C47.6581 14.136 47.5709 13.4381 47.5709 12.6529C47.5709 11.8678 47.7454 11.1699 48.0071 10.5593C48.356 9.94862 48.705 9.51244 49.3156 9.25073C49.839 8.90178 50.4497 8.81454 51.1476 8.81454C51.8455 8.81454 52.4561 8.98902 52.9795 9.25073C53.503 9.51244 53.8519 9.94861 54.1136 10.472C54.3753 10.9954 54.4626 11.6061 54.4626 12.2168C54.4626 12.3912 54.4626 12.5657 54.4626 12.6529C54.4626 12.8274 54.4626 12.9147 54.3753 13.0019H48.2688V11.9551H53.8519L53.2413 12.0423C53.2413 11.3444 53.0668 10.7338 52.6306 10.3848C52.1944 10.0359 51.671 9.77415 51.0603 9.77415C50.5369 9.77415 50.1007 9.86138 49.7518 10.1231C49.4029 10.3848 49.1411 10.6465 48.8794 11.0827C48.705 11.5189 48.6177 12.0423 48.6177 12.6529C48.6177 13.2636 48.705 13.787 48.8794 14.2232C49.0539 14.6594 49.4029 15.0083 49.7518 15.1828C50.1007 15.4445 50.5369 15.5317 51.0603 15.5317C51.5838 15.5317 52.1072 15.4445 52.3689 15.1828C52.7178 15.0083 52.9795 14.6594 53.2413 14.3105L54.2009 14.8339C54.0264 15.1828 53.7647 15.4445 53.503 15.7062C53.2413 15.9679 52.8923 16.1424 52.4561 16.3169C52.1072 16.4041 51.671 16.4914 51.2348 16.4914Z" fill="#1F55E1"/>
<path d="M57.6904 8.81454H56.4691V16.4041H57.6904V8.81454Z" fill="#1F55E1"/>
<path d="M57.6904 6.37192H56.4691V7.59322H57.6904V6.37192Z" fill="#1E3563"/>
<path d="M64.2331 15.3573C64.931 15.3573 65.5416 15.5317 65.8906 15.8807C66.3267 16.2296 66.5012 16.6658 66.5012 17.1892C66.5012 17.7127 66.3267 18.1488 65.9778 18.4978C65.6288 18.8467 65.1927 19.1084 64.6692 19.3701C64.1458 19.5446 63.5352 19.6318 62.8373 19.6318C61.616 19.6318 60.7436 19.4574 60.133 19.0212C59.5223 18.585 59.2606 18.1489 59.2606 17.5382C59.2606 17.102 59.4351 16.7531 59.6968 16.4914C59.9585 16.1424 60.3947 15.9679 61.0053 15.9679L60.9181 16.2297C60.5691 16.1424 60.3074 15.9679 60.0457 15.7935C59.784 15.619 59.6968 15.27 59.6968 14.8338C59.6968 14.3977 59.8712 14.0487 60.133 13.787C60.4819 13.5253 60.9181 13.2636 61.5287 13.2636L62.3139 13.6998H62.1394C61.616 13.787 61.267 13.8743 61.0926 14.0487C60.9181 14.2232 60.7436 14.4849 60.7436 14.6594C60.7436 14.9211 60.8308 15.1828 61.0926 15.27C61.267 15.4445 61.616 15.4445 61.9649 15.4445H64.2331V15.3573ZM62.75 8.64008C63.3607 8.64008 63.8841 8.72731 64.3203 8.98902C64.7565 9.16349 65.1927 9.51243 65.4544 9.86138C65.7161 10.2103 65.8906 10.6465 65.8906 11.1699C65.8906 11.6933 65.7161 12.1295 65.4544 12.4784C65.1927 12.8274 64.8437 13.1763 64.3203 13.3508C63.8841 13.5253 63.2735 13.6998 62.75 13.6998C61.7904 13.6998 61.0053 13.4381 60.4819 13.0019C59.9585 12.5657 59.6968 11.955 59.6968 11.1699C59.6968 10.6465 59.8712 10.2103 60.133 9.86138C60.3947 9.51243 60.7436 9.16349 61.267 8.98902C61.616 8.72731 62.1394 8.64008 62.75 8.64008ZM62.9245 18.585C63.5352 18.585 63.9714 18.4978 64.4075 18.4106C64.7565 18.3233 65.1054 18.1489 65.2799 17.9744C65.4544 17.7999 65.5416 17.5382 65.5416 17.3637C65.5416 17.102 65.4544 16.8403 65.1927 16.7531C65.0182 16.5786 64.582 16.4914 64.0586 16.4914H61.7032C61.3543 16.4914 61.0926 16.5786 60.9181 16.7531C60.6564 16.9275 60.5691 17.1892 60.5691 17.4509C60.5691 17.7999 60.7436 18.1488 61.1798 18.3233C61.5287 18.4105 62.1394 18.585 62.9245 18.585ZM62.75 9.59965C62.2266 9.59965 61.7904 9.77413 61.4415 10.0358C61.0926 10.2975 60.9181 10.7337 60.9181 11.1699C60.9181 11.6061 61.0926 12.0423 61.4415 12.304C61.7904 12.5657 62.2266 12.7402 62.75 12.7402C63.2735 12.7402 63.7096 12.5657 64.0586 12.304C64.4075 12.0423 64.582 11.6061 64.582 11.1699C64.582 10.7337 64.4075 10.2975 64.0586 10.0358C63.7096 9.77413 63.2735 9.59965 62.75 9.59965ZM66.5884 8.72729L66.8502 9.77414C66.8502 9.77414 66.8502 9.77414 66.7629 9.77414C66.7629 9.77414 66.7629 9.77414 66.6757 9.77414C66.1523 9.77414 65.8033 9.86136 65.5416 10.0358C65.2799 10.2103 65.1054 10.5593 65.1054 10.9955L64.582 10.472C64.582 10.1231 64.4075 9.86136 64.582 9.59965C64.7565 9.33795 65.0182 9.07625 65.2799 8.90177C65.8033 8.81454 66.1523 8.72729 66.5884 8.72729C66.5012 8.72729 66.5012 8.72729 66.5884 8.72729C66.5012 8.72729 66.5884 8.72729 66.5884 8.72729Z" fill="#1F55E1"/>
<path d="M67.9842 16.3169V8.72731H69.0311L69.1183 10.3848L68.9438 10.2103C69.1183 9.77416 69.2928 9.51245 69.5545 9.25074C69.8162 8.98903 70.1651 8.81455 70.5141 8.72731C70.863 8.64008 71.212 8.55286 71.6482 8.55286C72.1716 8.55286 72.695 8.64009 73.1312 8.9018C73.5674 9.07627 73.9163 9.42522 74.178 9.8614C74.4397 10.2976 74.6142 10.821 74.6142 11.5189V16.3169H73.3929V11.8679C73.3929 10.9955 73.2184 10.472 72.8695 10.1231C72.5205 9.77416 72.0843 9.59968 71.5609 9.59968C71.212 9.59968 70.863 9.68693 70.5141 9.8614C70.1651 10.0359 69.8162 10.2976 69.6417 10.7337C69.38 11.0827 69.2928 11.6061 69.2928 12.304V16.3169H67.9842Z" fill="#1F55E1"/>
<path d="M80.808 6.19745C81.6803 6.19745 82.4655 6.37193 83.0761 6.72087C83.6868 7.06982 84.2102 7.59323 84.6464 8.29112L83.5995 9.07627C83.2506 8.46561 82.8144 7.94219 82.3782 7.68048C81.9421 7.41877 81.3314 7.2443 80.7207 7.2443C80.1973 7.2443 79.7611 7.33152 79.4122 7.506C79.0633 7.68047 78.8015 7.85495 78.6271 8.11666C78.4526 8.37837 78.3654 8.64008 78.3654 8.98902C78.3654 9.33797 78.4526 9.68692 78.7143 9.94863C78.976 10.2103 79.4122 10.3848 80.0229 10.5593L82.2038 11.0827C83.1634 11.2572 83.8613 11.6061 84.2102 12.0423C84.5591 12.4785 84.7336 13.0019 84.7336 13.6126C84.7336 14.136 84.5591 14.6594 84.2974 15.0955C83.9485 15.5317 83.5123 15.8807 82.9889 16.1424C82.3782 16.4041 81.7676 16.4914 80.9825 16.4914C80.2846 16.4914 79.5867 16.4041 79.0633 16.2297C78.5398 16.0552 78.0164 15.7935 77.6675 15.4445C77.3185 15.0956 76.9696 14.7466 76.7079 14.3105L77.7547 13.4381C77.9292 13.787 78.1909 14.136 78.4526 14.4849C78.7143 14.8339 79.1505 15.0083 79.5867 15.1828C80.0229 15.3573 80.5463 15.4445 81.0697 15.4445C81.5931 15.4445 82.0293 15.3573 82.3782 15.27C82.7272 15.1828 83.0761 14.9211 83.2506 14.7466C83.4251 14.4849 83.5123 14.2232 83.5123 13.8743C83.5123 13.5253 83.4251 13.2636 83.1634 13.0019C82.9889 12.7402 82.5527 12.5657 81.9421 12.3912L79.5867 11.8678C78.976 11.6934 78.4526 11.5189 78.1037 11.2572C77.7547 10.9955 77.493 10.7338 77.3185 10.3848C77.144 10.0359 77.0568 9.68691 77.0568 9.25072C77.0568 8.7273 77.2313 8.2039 77.493 7.76772C77.7547 7.33154 78.1909 6.98258 78.8015 6.72087C79.4122 6.45916 80.0229 6.19745 80.808 6.19745Z" fill="#1E3563"/>
<path d="M90.055 16.4914C89.3571 16.4914 88.7465 16.3169 88.1358 16.0552C87.6124 15.7062 87.1762 15.2701 86.8273 14.7466C86.4783 14.136 86.3911 13.4381 86.3911 12.6529C86.3911 11.8678 86.5656 11.1699 86.8273 10.5593C87.1762 9.94862 87.5252 9.51244 88.1358 9.25073C88.6592 8.90178 89.2699 8.81454 89.9678 8.81454C90.6657 8.81454 91.2763 8.98902 91.7997 9.25073C92.3232 9.51244 92.6721 9.94861 92.9338 10.472C93.1955 10.9954 93.2828 11.6061 93.2828 12.2168C93.2828 12.3912 93.2828 12.5657 93.2828 12.6529C93.2828 12.8274 93.2828 12.9147 93.1955 13.0019H87.089V11.9551H92.6721L92.0615 12.0423C92.0615 11.3444 91.887 10.7338 91.4508 10.3848C91.0146 10.0359 90.4912 9.77415 89.8806 9.77415C89.3571 9.77415 88.921 9.86138 88.572 10.1231C88.2231 10.3848 87.9613 10.6465 87.6996 11.0827C87.5252 11.5189 87.4379 12.0423 87.4379 12.6529C87.4379 13.2636 87.5252 13.787 87.6996 14.2232C87.8741 14.6594 88.2231 15.0083 88.572 15.1828C88.921 15.4445 89.3571 15.5317 89.8806 15.5317C90.404 15.5317 90.9274 15.4445 91.1891 15.1828C91.538 15.0083 91.7998 14.6594 92.0615 14.3105L93.0211 14.8339C92.8466 15.1828 92.5849 15.4445 92.3232 15.7062C92.0615 15.9679 91.7125 16.1424 91.2763 16.3169C91.0146 16.4041 90.5784 16.4914 90.055 16.4914Z" fill="#1E3563"/>
<path d="M99.8255 8.81455V9.86139H94.3296V8.81455H99.8255ZM97.0339 6.63364V14.2232C97.0339 14.5721 97.1211 14.8338 97.3829 15.0956C97.5573 15.27 97.9063 15.3573 98.168 15.3573C98.4297 15.3573 98.6914 15.2701 98.9531 15.1828C99.1276 15.0956 99.3893 14.9211 99.5638 14.7466L99.9999 15.7935C99.7382 15.968 99.4765 16.1424 99.2148 16.3169C98.8659 16.4041 98.5169 16.4914 98.0808 16.4914C97.7318 16.4914 97.3829 16.4041 97.0339 16.3169C96.685 16.1424 96.4233 15.9679 96.2488 15.7062C96.0743 15.4445 95.9871 15.0083 95.8998 14.5722V7.06982L97.0339 6.63364Z" fill="#1E3563"/>
<path d="M14.6828 22.1617C14.5083 21.2893 13.7232 20.6787 12.8508 20.6787H11.1934C11.0189 20.6787 10.8444 20.5915 10.8444 20.417L10.6699 16.9275H8.66349L8.48902 20.417C8.48902 20.5915 8.31455 20.6787 8.14008 20.6787H6.48258C5.61022 20.6787 4.82509 21.2893 4.65062 22.1617V22.3362C4.65062 22.4234 4.65062 22.5106 4.73786 22.5106H14.5956C14.6828 22.5106 14.6828 22.4234 14.6828 22.3362V22.1617Z" fill="#1E3563"/>
<path d="M10.4082 18.6722C4.47617 19.1957 -0.409066 14.3104 0.0271162 8.46556C0.288825 5.06334 2.46974 2.0973 5.52301 0.527042L5.87196 0.352585C6.04643 0.265349 6.2209 0.352569 6.30814 0.527042L6.83156 1.57389C6.91879 1.74836 6.83156 1.92284 6.65708 2.01007L6.30814 2.18453C3.69105 3.49308 1.85908 6.1974 1.77184 9.16344C1.68461 13.6997 5.61025 17.3637 10.2338 17.0147C11.8913 16.8402 13.4615 16.1423 14.6828 15.0955L14.9445 14.8338C15.0318 14.7466 15.2935 14.7466 15.3807 14.8338L16.1659 15.7062C16.2531 15.7934 16.2531 16.0551 16.1659 16.1424L15.9041 16.4041C14.3339 17.6254 12.5019 18.4978 10.4082 18.6722Z" fill="#1E3563"/>
<path d="M12.2402 9.33788C12.0657 8.9017 11.8912 8.46552 11.6295 8.11657C11.3678 7.76763 11.1934 7.33143 10.9316 6.98248L13.1998 5.76118C13.8977 6.45907 14.3339 7.24421 14.5083 8.20381L12.2402 9.33788ZM9.53587 6.5463C8.40179 5.15052 7.44219 4.53989 7.18048 4.71436C6.91877 4.88883 6.83154 6.0229 7.44219 7.68039L9.53587 6.5463ZM9.6231 11.7805C10.7572 13.1763 11.7168 13.787 11.9785 13.6125C12.2402 13.438 12.3274 12.3039 11.7168 10.6464L9.6231 11.7805ZM10.0593 7.33145L7.79114 8.64C7.96561 8.98894 8.14008 9.42512 8.40179 9.8613C8.6635 10.2975 8.83797 10.6464 9.09968 10.9954L11.3678 9.77406C11.1934 9.42511 11.0189 8.98894 10.7572 8.55275C10.5827 8.02934 10.321 7.6804 10.0593 7.33145ZM7.52943 10.2975C7.26772 9.8613 7.09325 9.51236 6.91877 9.07618L4.65063 10.2975C4.8251 11.1698 5.34852 12.0422 5.95917 12.7401L8.22732 11.5188C8.05285 11.0826 7.79114 10.6464 7.52943 10.2975ZM8.83798 12.2167L6.7443 13.3507C7.87837 14.1359 9.36139 14.3976 10.6699 14.0487C9.97205 13.5252 9.36139 12.9146 8.83798 12.2167ZM12.5891 10.123C12.9381 10.9954 13.1126 11.8678 13.1998 12.7401C14.1594 11.7805 14.7701 10.3847 14.6828 8.98894L12.5891 10.123ZM10.321 6.11012L12.4147 4.97606C11.2806 4.19093 9.79757 3.92923 8.48903 4.27818C9.18692 4.80159 9.79758 5.41223 10.321 6.11012ZM6.56983 8.20381C6.22088 7.33145 6.04641 6.45909 5.95917 5.58672C4.99957 6.54632 4.38892 7.94209 4.47615 9.33788L6.56983 8.20381Z" fill="#1F55E1"/>
</svg>
